<svg width="40" height="40" viewBox="0 0 40 40" fill="none" xmlns="http://www.w3.org/2000/svg">
<path d="M28 0C34.6274 2.57703e-07 40 5.37258 40 12V28C40 34.6274 34.6274 40 28 40H12C5.37258 40 2.57711e-07 34.6274 0 28V12C2.57711e-07 5.37258 5.37258 2.57703e-07 12 0H28ZM12.8184 11C12.3665 11 12 11.3665 12 11.8184V28.1816C12 28.6335 12.3665 29 12.8184 29H14.666C14.9371 29 15.1572 28.7799 15.1572 28.5088V14.9678C15.1574 14.6969 15.3766 14.4777 15.6475 14.4775H21.4092C24.3461 14.4777 26.7274 16.859 26.7275 19.7959C26.7273 22.7328 24.3461 25.1132 21.4092 25.1133H19.5605C19.2899 25.1137 19.0705 25.3338 19.0703 25.6045V28.5088C19.0703 28.7799 19.2904 29 19.5615 29H21C25.9706 29 30 24.9706 30 20C30 15.0294 25.9706 11 21 11H12.8184ZM19.4453 17.75C19.1746 17.7502 18.9545 17.9695 18.9541 18.2402V21.3506C18.9544 21.6213 19.1745 21.8406 19.4453 21.8408H21C22.1295 21.8408 23.0457 20.9254 23.0459 19.7959C23.0459 18.6662 22.1297 17.75 21 17.75H19.4453Z" fill="#1C1C1C"></path>
</svg>